<?xml version="1.0" encoding="utf-8"?>
<!-- Generator: Adobe Illustrator 27.2.0, SVG Export Plug-In . SVG Version: 6.00 Build 0)  -->
<svg version="1.1" id="Layer_1" xmlns="http://www.w3.org/2000/svg" xmlns:xlink="http://www.w3.org/1999/xlink" x="0px" y="0px"
	 viewBox="0 0 1200 600" style="enable-background:new 0 0 1200 600;" xml:space="preserve">
<style type="text/css">
	.st0{fill:#101010;}
</style>
<g>
	<g>
		<path class="st0" d="M84.98,345.85c0.25,0.26,0.52,0.53,0.78,0.77c0.74,0.73,1.49,1.47,2.25,2.19c0.86,0.81,1.73,1.63,2.6,2.42
			c7.61,6.98,15.74,13.19,24.32,18.59c0.89,0.57,1.79,1.12,2.69,1.67c0.91,0.55,1.82,1.09,2.73,1.63c0.99,0.57,1.98,1.14,2.97,1.69
			c25.16,13.95,53.58,21.37,83.14,21.37s57.98-7.41,83.14-21.37c1-0.55,1.99-1.12,2.97-1.69c0.92-0.53,1.83-1.08,2.73-1.63
			c0.9-0.55,1.8-1.11,2.69-1.67c8.58-5.41,16.71-11.62,24.32-18.59c0.87-0.79,1.74-1.6,2.6-2.42c0.76-0.73,1.51-1.46,2.25-2.19
			c0.26-0.25,0.53-0.51,0.78-0.77c0.63-0.63,1.25-1.27,1.87-1.91c31.27-32.22,48.45-74.58,48.45-119.58
			c0-45.9-17.87-89.04-50.32-121.5c-32.45-32.45-75.6-50.32-121.5-50.32s-89.04,17.87-121.5,50.32
			c-32.45,32.45-50.32,75.59-50.32,121.5c0,45,17.19,87.36,48.45,119.58C83.72,344.58,84.35,345.22,84.98,345.85z M206.47,92.41
			c72.76,0,131.95,59.19,131.95,131.95c0,33.15-12.28,63.47-32.53,86.67c-0.03,0.06-0.08,0.1-0.14,0.16
			c-0.8,0.92-1.61,1.83-2.44,2.72c-0.33,0.37-0.68,0.73-1.02,1.08c-7.96,8.41-17.01,15.78-26.93,21.88
			c-0.32,0.2-0.64,0.39-0.96,0.58c-0.97,0.6-1.96,1.17-2.95,1.74c-0.37,0.22-0.75,0.42-1.13,0.63
			c-18.93,10.52-40.71,16.5-63.85,16.5s-44.91-5.99-63.85-16.5c-0.38-0.21-0.76-0.41-1.13-0.63c-0.99-0.57-1.98-1.14-2.95-1.74
			c-0.33-0.19-0.65-0.38-0.96-0.58c-9.92-6.1-18.97-13.46-26.93-21.88c-0.34-0.35-0.69-0.72-1.02-1.08
			c-0.83-0.89-1.64-1.8-2.44-2.72c-0.06-0.06-0.1-0.1-0.14-0.16c-20.26-23.2-32.53-53.52-32.53-86.67
			C74.52,151.6,133.71,92.41,206.47,92.41z"/>
		<path class="st0" d="M339.64,367.82c-0.39,0.36-0.79,0.73-1.18,1.08c-0.75,0.69-1.5,1.36-2.26,2.03
			c-8.86,7.85-18.44,14.92-28.49,21.01c-0.96,0.59-1.96,1.18-3,1.79c0.21,1.4,0.38,2.81,0.53,4.24c0.34,3.4,0.53,6.84,0.53,10.32
			c0,54.75-44.55,99.3-99.3,99.3s-99.3-44.55-99.3-99.3c0-3.48,0.18-6.93,0.53-10.32c0.15-1.42,0.33-2.83,0.53-4.23
			c-1.05-0.61-2.07-1.22-3.07-1.83c-9.98-6.06-19.55-13.11-28.42-20.98c-0.77-0.68-1.52-1.36-2.28-2.05
			c-0.38-0.35-0.77-0.7-1.15-1.06c-1.79,5.88-3.2,11.91-4.2,18.08c-1.19,7.29-1.8,14.77-1.8,22.39c0,17.77,3.35,34.77,9.45,50.41
			c20.23,51.89,70.75,88.75,129.71,88.75s109.48-36.86,129.71-88.75c6.1-15.64,9.45-32.64,9.45-50.41c0-7.62-0.61-15.1-1.8-22.39
			C342.83,379.73,341.42,373.69,339.64,367.82z"/>
		<path class="st0" d="M127.18,297.66l0.1,0.12c0.22,0.23,0.44,0.47,0.66,0.7l0.06,0.07c6.39,6.74,13.58,12.62,21.42,17.52
			c1.28,0.8,2.57,1.57,3.88,2.32l0.1,0.06c0.19,0.11,0.39,0.22,0.59,0.33l0.23,0.13c1.47,0.82,2.97,1.6,4.49,2.35
			c14.17-7.81,30.45-12.26,47.75-12.26c17.29,0,33.57,4.45,47.75,12.25c1.51-0.74,3.01-1.52,4.49-2.34l0.24-0.14
			c0.2-0.1,0.39-0.21,0.58-0.32l0.1-0.06c1.32-0.75,2.61-1.52,3.88-2.32c7.84-4.9,15.03-10.78,21.42-17.52l0.06-0.07
			c0.22-0.23,0.44-0.47,0.65-0.7l0.11-0.12c0.69-0.74,1.36-1.48,2.01-2.24c2.15-2.45,4.18-4.98,6.08-7.6l-87.38-171.5l-87.38,171.5
			c1.91,2.61,3.93,5.15,6.08,7.6C125.82,296.17,126.49,296.91,127.18,297.66z M206.47,204.13l35.46,69.59
			c-11.32-2.99-23.21-4.58-35.46-4.58s-24.14,1.59-35.46,4.58L206.47,204.13z"/>
	</g>
	<g>
		<path class="st0" d="M470.38,388.46L438.29,459h-37.7l134.37-293.36L669.32,459h-37.7l-32.1-70.54H470.38z M534.95,242.52
			l-50.01,113.84h100.03L534.95,242.52z"/>
		<path class="st0" d="M724.93,312.69h1.12c8.21-20.53,25.38-33.59,47.77-33.59c9.7,0,19.41,3.36,27.62,8.58l-15.3,30.61
			c-5.97-5.23-12.69-7.09-20.53-7.09c-36.2,0-40.68,33.59-40.68,61.96V459h-33.59V284.32h33.59V312.69z"/>
		<path class="st0" d="M855.93,350.01l65.69-65.69h44.41l-74.65,72.41L973.5,459h-43.67l-62.33-79.5l-11.57,11.57V459h-33.59V135.03
			h33.59V350.01z"/>
		<path class="st0" d="M1033.59,313.06c-23.14-13.06-36.95-35.46-36.95-63.08c0-45.91,35.83-78.38,80.62-78.38
			s80.62,32.47,80.62,78.38c0,27.62-13.81,50.01-36.95,63.08c29.11,10.08,44.41,37.32,44.41,67.56c0,52.25-40.31,84.35-88.08,84.35
			s-88.08-32.1-88.08-84.35C989.18,350.39,1004.48,323.14,1033.59,313.06z M1022.77,380.62c0,28.37,26.87,53,54.49,53
			s54.49-24.63,54.49-53c0-29.86-26.13-53-54.49-53S1022.77,350.76,1022.77,380.62z M1029.49,249.99
			c0,22.39,24.26,47.77,47.77,47.77s47.77-25.38,47.77-47.77c0-26.87-22.39-48.52-47.77-48.52S1029.49,223.11,1029.49,249.99z"/>
	</g>
</g>
</svg>
